<?xml version="1.0" encoding="UTF-8"?>
<svg id="Layer_1" data-name="Layer 1" xmlns="http://www.w3.org/2000/svg" viewBox="0 0 992.16 560.78">
  <defs>
    <style>
      .cls-1 {
        fill: #162541;
      }

      .cls-2 {
        fill: #3b7acd;
      }
    </style>
  </defs>
  <path class="cls-1" d="M992.16.82l-121.44,279.4-86.8,205.07-30.85,75.49c-13.99-.53-27.22-.82-39.69-.82-13.5,0-26.78.29-39.74.82-22.39-82.32-46.84-163.12-73.35-242.47-37.3,80.45-72.43,161.26-105.4,242.47-13.77-.53-27.22-.82-40.45-.82s-27.05.29-40.01.82l-12.58-43.29c6.02-4.67,11.87-9.74,17.62-15.17,11.82-11.2,22.45-23.51,31.93-36.93l8.02,26.49c38.82-86.46,75.74-174.5,110.76-264.17-22.39-77.71-45.76-153.32-70.16-226.89,13.99.29,26.46.41,37.41.41s23.75-.12,36.98-.41c6.83,28.18,12.63,51.05,17.35,68.49,4.66,17.5,11.33,40.26,19.95,68.14,14.75-33.96,32.2-79.46,52.26-136.64,13.99.29,26.57.41,37.73.41,11.93,0,24.51-.12,37.68-.41-34.05,74.39-66.96,150.29-98.73,227.71,23.48,87.51,49.34,175.26,77.58,263.36l101.33-243.69,73.57-182.96L917.88.82c14.26.29,26.67.41,37.36.41s23.48-.12,36.92-.41Z"/>
  <path class="cls-2" d="M480.74,159.57c-4.55-16.8-10.68-32.73-18.54-47.67-3.9-7.64-8.29-15.05-13.12-22.23-14.1-21.06-30.14-38.1-48.09-51.17-.16-.12-.33-.23-.49-.35-18.16-13.13-38.17-22.29-60.02-27.48-1.46-.35-2.98-.7-4.5-1.05-.33-.12-.65-.18-.98-.23-4.34-.99-8.84-1.93-13.5-2.68-14.53-2.63-30.52-4.43-47.93-5.54-12.52-.76-25.81-1.17-39.79-1.17-12.47,0-33.56.29-63.27.82-29.76.58-51.72.82-65.98.82-22.61,0-49.93-.23-81.92-.82,0,6.83,0,13.24-.05,19.19,0,16.74-.11,29.99-.33,39.91l-11.49,331.85L1.3,539.95l-1.19,19.37-.11,1.46c5.86-.06,11.44-.17,16.59-.17,32.86-.41,52.21-.64,58.17-.64l106.32.82c45.27,0,86.2-4.43,122.96-13.36,33.78-8.17,64.57-24.45,92.33-48.83,2.39-2.1,4.77-4.32,7.16-6.53,15.61-14.76,29.17-31.45,40.72-50.12,10.36-16.74,19.08-35.01,26.19-54.9,8.35-23.4,14.42-47.37,18.05-71.94,2.98-19.43,4.45-39.26,4.45-59.51,0-33.37-4.07-65.4-12.2-96.03ZM418.12,310.38c-1.14,7.29-2.49,14.53-4.07,21.7-.22,1.11-.49,2.16-.76,3.27-5.58,24.27-13.77,46.27-24.56,66.04-4.23,7.76-8.95,15.17-14.1,22.35-8.57,11.84-18.43,22.87-29.55,33.02-17.78,16.28-35.84,27.6-54.27,33.9-18.38,6.24-39.2,10.56-62.46,12.89-23.2,2.33-45.98,3.5-68.31,3.5s-45.27-.29-70.16-.82c-5.37-.12-10.79-.29-16.32-.41l.05-1.23.7-19.25,15.72-411.31.7-19.08c39.36-.82,82.84-1.22,130.39-1.22,14.91,0,28.73.47,41.37,1.52,16.54,1.28,31.12,3.5,43.81,6.53,2.77.64,5.42,1.28,8.02,2.04,9.11,2.57,17.78,6.18,25.92,10.85,4.66,2.63,9.16,5.6,13.5,8.93,7.64,5.83,14.91,12.72,21.58,20.59,8.4,9.86,15.56,20.36,21.58,31.5,6.23,11.55,11.17,23.75,14.8,36.58,7.1,25.2,10.68,52.51,10.68,82.09,0,18.84-1.41,37.51-4.28,56.01Z"/>
  <path class="cls-1" d="M405.27,307.52c-.22,1.28-.49,2.57-.76,3.85-5.58,25.55-14.04,48.72-25.32,69.31-3.52,6.48-7.37,12.72-11.6,18.73l-13.07-44.98-85.88-279.28c16.54,1.69,30.96,4.26,43.26,7.76,12.69,3.62,24.45,9.22,35.29,16.8l40.17,145.62,17.89,62.19Z"/>
</svg>